<?xml version="1.0" standalone="no"?>
<!DOCTYPE svg PUBLIC "-//W3C//DTD SVG 20010904//EN"
 "http://www.w3.org/TR/2001/REC-SVG-20010904/DTD/svg10.dtd">
  <svg width="90" height="38" viewBox="0 0 164 70" fill="none" xmlns="http://www.w3.org/2000/svg">
    <g clip-path="url(#clip0)">
    <path d="M6.90533 0H0V69.9989H6.90533V0Z" fill="#5F5F5F"/>
    <path d="M51.7901 0H44.8848V69.9989H51.7901V0Z" fill="#5F5F5F"/>
    <path d="M72.5064 0H65.6011V69.9989H72.5064V0Z" fill="#5F5F5F"/>
    <path d="M89.7691 0H82.8638V69.9989H89.7691V0Z" fill="#5F5F5F"/>
    <path d="M132.928 0H126.023V69.9989H132.928V0Z" fill="#5F5F5F"/>
    <path d="M25.8917 50.7555C18.3693 50.7555 12.1624 55.3398 7.75525 59.5726C3.34794 63.8057 0.57373 68.0464 0.57373 68.0464L3.4642 70H7.76421C8.82762 68.6 10.3413 66.7474 12.51 64.6643C16.3024 61.0222 21.3282 57.7644 25.8917 57.7644C30.4553 57.7644 35.4897 61.0222 39.2821 64.6643C41.4514 66.7478 42.9648 68.5993 44.0281 70H48.3281L51.2184 68.0464C51.2184 68.0464 48.4442 63.8057 44.037 59.5726C39.6299 55.3398 33.4142 50.7555 25.8917 50.7555Z" fill="#5F5F5F"/>
    <path d="M107.894 70C110.755 70 113.073 67.6497 113.073 64.7503C113.073 61.8509 110.755 59.5006 107.894 59.5006C105.034 59.5006 102.715 61.8509 102.715 64.7503C102.715 67.6497 105.034 70 107.894 70Z" fill="#5F5F5F"/>
    <path d="M163.536 17.4916L163.099 17.6315C163.099 17.6315 154.256 20.0621 145.302 24.2606C140.824 26.3596 136.277 28.905 132.652 31.983C129.026 35.0612 126.014 38.903 126.014 43.7396C126.014 48.5763 129.026 52.4533 132.652 55.5319C136.277 58.6101 140.824 61.1286 145.302 63.2281C154.256 67.4261 163.099 69.8925 163.099 69.8925L163.536 69.9972H164V62.8169C162.932 62.5106 155.9 60.4856 148.201 56.8756C144.047 54.928 139.915 52.5923 137.068 50.1748C134.22 47.7571 132.919 45.4796 132.919 43.754C132.919 42.0285 134.219 39.7783 137.068 37.3603C139.915 34.9426 144.047 32.5712 148.201 30.6233C155.9 27.0136 162.932 24.9858 164 24.6815V17.4926L163.536 17.4916Z" fill="#5F5F5F"/>
    </g>
    <defs>
    <clipPath id="clip0">
    <rect width="164" height="70" fill="white"/>
    </clipPath>
    </defs>
  </svg>
