<?xml version="1.0" encoding="UTF-8" standalone="no"?>
<!-- Created with Inkscape (http://www.inkscape.org/) -->

<svg
   xmlns:dc="http://purl.org/dc/elements/1.1/"
   xmlns:cc="http://creativecommons.org/ns#"
   xmlns:rdf="http://www.w3.org/1999/02/22-rdf-syntax-ns#"
   xmlns:svg="http://www.w3.org/2000/svg"
   xmlns="http://www.w3.org/2000/svg"
   xmlns:sodipodi="http://sodipodi.sourceforge.net/DTD/sodipodi-0.dtd"
   xmlns:inkscape="http://www.inkscape.org/namespaces/inkscape"
   width="7.9375mm"
   height="5.291738mm"
   viewBox="0 0 7.9375 5.291738"
   version="1.1"
   id="svg8"
   inkscape:version="0.92.3 (2405546, 2018-03-11)"
   sodipodi:docname="willdotk_logo.svg">
  <defs
     id="defs2" />
  <sodipodi:namedview
     id="base"
     pagecolor="#ffffff"
     bordercolor="#666666"
     borderopacity="1.0"
     inkscape:pageopacity="0.0"
     inkscape:pageshadow="2"
     inkscape:zoom="16"
     inkscape:cx="15.309781"
     inkscape:cy="9.0898149"
     inkscape:document-units="mm"
     inkscape:current-layer="text927"
     showgrid="false"
     inkscape:window-width="2560"
     inkscape:window-height="1377"
     inkscape:window-x="-8"
     inkscape:window-y="-8"
     inkscape:window-maximized="1" />
  <metadata
     id="metadata5">
    <rdf:RDF>
      <cc:Work
         rdf:about="">
        <dc:format>image/svg+xml</dc:format>
        <dc:type
           rdf:resource="http://purl.org/dc/dcmitype/StillImage" />
        <dc:title></dc:title>
      </cc:Work>
    </rdf:RDF>
  </metadata>
  <g
     inkscape:label="Layer 1"
     inkscape:groupmode="layer"
     id="layer1"
     transform="translate(1.0320898e-6,-291.70826)">
    <g
       id="layer1-3"
       inkscape:label="Layer 1"
       transform="translate(142.39072,-199.03484)">
      <g
         id="text927"
         style="font-style:normal;font-weight:normal;font-size:10.86602116px;line-height:1.25;font-family:sans-serif;letter-spacing:0px;word-spacing:0px;fill:#000000;fill-opacity:1;stroke:none;stroke-width:0.27165049"
         transform="scale(0.97993868,1.020472)"
         aria-label="L">
        <g
           transform="translate(-164.26125,188.52695)"
           id="g982">
          <g
             aria-label="D"
             transform="scale(0.97195783,1.0288513)"
             style="font-style:normal;font-weight:normal;font-size:10.56150913px;line-height:1.25;font-family:sans-serif;letter-spacing:0px;word-spacing:0px;fill:#b3b3b3;fill-opacity:1;stroke:none;stroke-width:0.26403776"
             id="text899">
            <path
               inkscape:connector-curvature="0"
               d="m 19.502394,289.21259 v -2.52005 h 0.868093 q 0.293948,0 0.448658,0.0361 0.216593,0.0498 0.369584,0.18049 0.199403,0.16846 0.297386,0.43147 0.0997,0.26129 0.0997,0.59821 0,0.28707 -0.06704,0.50882 -0.06704,0.22175 -0.1719,0.36787 -0.104858,0.14439 -0.230345,0.22862 -0.123768,0.0825 -0.300824,0.12549 -0.175338,0.043 -0.403964,0.043 z m 0.333485,-0.29739 h 0.538046 q 0.249254,0 0.390212,-0.0464 0.142677,-0.0464 0.226907,-0.13065 0.118611,-0.11861 0.183933,-0.31801 0.06704,-0.20112 0.06704,-0.48648 0,-0.39537 -0.130644,-0.6068 -0.128925,-0.21316 -0.314576,-0.28536 -0.134082,-0.0516 -0.431468,-0.0516 h -0.529451 z"
               style="font-style:normal;font-variant:normal;font-weight:normal;font-stretch:normal;font-size:3.52050328px;font-family:Arial;-inkscape-font-specification:Arial;text-align:center;text-anchor:middle;fill:#b3b3b3;fill-opacity:1;stroke-width:0.26403776"
               id="path929" />
          </g>
          <g
             aria-label="O"
             transform="scale(0.91929497,1.0877902)"
             style="font-style:normal;font-weight:normal;font-size:9.6532402px;line-height:1.25;font-family:sans-serif;letter-spacing:0px;word-spacing:0px;fill:#b3b3b3;fill-opacity:1;stroke:none;stroke-width:0.24133098"
             id="text903">
            <path
               inkscape:connector-curvature="0"
               d="m 22.822386,272.38127 q 0,-0.57348 0.307948,-0.89714 0.307949,-0.32523 0.79501,-0.32523 0.318947,0 0.575047,0.15241 0.256099,0.1524 0.389649,0.42578 0.13512,0.27181 0.13512,0.61747 0,0.35037 -0.141405,0.6269 -0.141405,0.27652 -0.400647,0.4195 -0.259243,0.1414 -0.559335,0.1414 -0.325232,0 -0.581331,-0.15712 -0.2561,-0.15711 -0.388078,-0.42892 -0.131978,-0.27181 -0.131978,-0.57505 z m 0.314233,0.005 q 0,0.41636 0.223105,0.65675 0.224677,0.23882 0.562478,0.23882 0.344085,0 0.565619,-0.24196 0.223106,-0.24196 0.223106,-0.6866 0,-0.28124 -0.09584,-0.4902 -0.09427,-0.21054 -0.278097,-0.32524 -0.182255,-0.11626 -0.410074,-0.11626 -0.32366,0 -0.557764,0.2231 -0.232532,0.22154 -0.232532,0.74159 z"
               style="font-style:normal;font-variant:normal;font-weight:normal;font-stretch:normal;font-size:3.21774697px;font-family:Arial;-inkscape-font-specification:Arial;text-align:center;text-anchor:middle;fill:#b3b3b3;fill-opacity:1;stroke-width:0.24133098"
               id="path932" />
          </g>
          <g
             aria-label="T"
             transform="scale(0.99265888,1.0073954)"
             style="font-style:normal;font-weight:normal;font-size:10.78623581px;line-height:1.25;font-family:sans-serif;letter-spacing:0px;word-spacing:0px;fill:#b3b3b3;fill-opacity:1;stroke:none;stroke-width:0.26965588"
             id="text907">
            <path
               inkscape:connector-curvature="0"
               d="m 24.02358,295.37231 v -2.26995 h -0.847942 v -0.30371 h 2.039975 v 0.30371 h -0.851452 v 2.26995 z"
               style="font-style:normal;font-variant:normal;font-weight:normal;font-stretch:normal;font-size:3.59541178px;font-family:Arial;-inkscape-font-specification:Arial;text-align:center;text-anchor:middle;fill:#b3b3b3;fill-opacity:1;stroke-width:0.26965588"
               id="path935" />
          </g>
          <g
             aria-label="K"
             transform="scale(0.97196752,1.028841)"
             style="font-style:normal;font-weight:normal;font-size:10.56140518px;line-height:1.25;font-family:sans-serif;letter-spacing:0px;word-spacing:0px;fill:#000000;fill-opacity:1;stroke:none;stroke-width:0.26403511"
             id="text911">
            <path
               inkscape:connector-curvature="0"
               d="m 25.752405,289.21552 v -2.52003 h 0.333482 v 1.2497 l 1.251416,-1.2497 h 0.452092 l -1.057172,1.02108 1.103584,1.49895 h -0.440058 l -0.897307,-1.27549 -0.412555,0.40224 v 0.87325 z"
               style="font-style:normal;font-variant:normal;font-weight:normal;font-stretch:normal;font-size:3.52046824px;font-family:Arial;-inkscape-font-specification:Arial;text-align:center;text-anchor:middle;stroke-width:0.26403511"
               id="path938" />
          </g>
          <g
             aria-label="W"
             transform="scale(0.94387139,1.0594664)"
             style="font-style:normal;font-weight:normal;font-size:10.2561245px;line-height:1.25;font-family:sans-serif;letter-spacing:0px;word-spacing:0px;fill:#000000;fill-opacity:1;stroke:none;stroke-width:0.25640312"
             id="text915">
            <path
               inkscape:connector-curvature="0"
               d="m 20.732074,278.40799 -0.649355,-2.44718 h 0.332189 l 0.372252,1.60419 q 0.0601,0.25206 0.103496,0.50078 0.09348,-0.39228 0.110174,-0.45237 l 0.465732,-1.6526 h 0.390614 l 0.350551,1.23861 q 0.131874,0.46073 0.190299,0.86636 0.04674,-0.23203 0.121859,-0.5325 l 0.383937,-1.57247 h 0.325511 l -0.671055,2.44718 h -0.312157 l -0.515811,-1.8646 q -0.0651,-0.2337 -0.07679,-0.28712 -0.03839,0.1686 -0.07178,0.28712 l -0.51915,1.8646 z"
               style="font-style:normal;font-variant:normal;font-weight:normal;font-stretch:normal;font-size:3.41870832px;font-family:Arial;-inkscape-font-specification:Arial;text-align:center;text-anchor:middle;stroke-width:0.25640312"
               id="path941" />
          </g>
          <g
             aria-label="I"
             transform="scale(0.99694834,1.003061)"
             style="font-style:normal;font-weight:normal;font-size:10.8328619px;line-height:1.25;font-family:sans-serif;letter-spacing:0px;word-spacing:0px;fill:#000000;fill-opacity:1;stroke:none;stroke-width:0.27082151"
             id="text919">
            <path
               inkscape:connector-curvature="0"
               d="m 22.398858,294.06384 v -2.58479 h 0.342053 v 2.58479 z"
               style="font-style:normal;font-variant:normal;font-weight:normal;font-stretch:normal;font-size:3.61095381px;font-family:Arial;-inkscape-font-specification:Arial;text-align:center;text-anchor:middle;stroke-width:0.27082151"
               id="path944" />
          </g>
          <g
             aria-label="L"
             style="font-style:normal;font-weight:normal;font-size:10.86602116px;line-height:1.25;font-family:sans-serif;letter-spacing:0px;word-spacing:0px;fill:#000000;fill-opacity:1;stroke:none;stroke-width:0.27165052"
             id="text923">
            <path
               inkscape:connector-curvature="0"
               d="m 23.275501,294.96396 v -2.59271 h 0.3431 V 294.658 H 24.8955 v 0.30596 z"
               style="font-style:normal;font-variant:normal;font-weight:normal;font-stretch:normal;font-size:3.62200713px;font-family:Arial;-inkscape-font-specification:Arial;text-align:center;text-anchor:middle;stroke-width:0.27165052"
               id="path947" />
          </g>
          <path
             inkscape:connector-curvature="0"
             d="m 25.030502,294.96402 v -2.59271 h 0.3431 v 2.28675 h 1.276899 v 0.30596 z"
             style="font-style:normal;font-variant:normal;font-weight:normal;font-stretch:normal;font-size:3.62200737px;font-family:Arial;-inkscape-font-specification:Arial;text-align:center;text-anchor:middle;stroke-width:0.27165049"
             id="path950" />
          <g
             transform="translate(-0.47046566,9.3558111)"
             aria-label="L"
             style="font-style:normal;font-weight:normal;font-size:10.86602116px;line-height:1.25;font-family:sans-serif;letter-spacing:0px;word-spacing:0px;fill:#000000;fill-opacity:1;stroke:none;stroke-width:0.27165052"
             id="text923-0" />
        </g>
      </g>
    </g>
  </g>
</svg>
